<svg xmlns="http://www.w3.org/2000/svg" xmlns:xlink="http://www.w3.org/1999/xlink" width="500" zoomAndPan="magnify" viewBox="0 0 375 374.999991" height="500" preserveAspectRatio="xMidYMid meet" version="1.0"><defs><g/><clipPath id="94b6a611a7"><path d="M 40 92 L 166 92 L 166 210 L 40 210 Z M 40 92 " clip-rule="nonzero"/></clipPath><clipPath id="0776a23c1b"><path d="M 65.4375 52.394531 L 206.511719 105.535156 L 124.816406 322.410156 L -16.257812 269.269531 Z M 65.4375 52.394531 " clip-rule="nonzero"/></clipPath><clipPath id="2491b16a80"><path d="M 65.4375 52.394531 L 206.511719 105.535156 L 124.816406 322.410156 L -16.257812 269.269531 Z M 65.4375 52.394531 " clip-rule="nonzero"/></clipPath><clipPath id="37972b64c3"><path d="M 65.4375 52.394531 L 206.511719 105.535156 L 124.816406 322.410156 L -16.257812 269.269531 Z M 65.4375 52.394531 " clip-rule="nonzero"/></clipPath><clipPath id="b14d5c366f"><path d="M 25 163 L 150 163 L 150 281 L 25 281 Z M 25 163 " clip-rule="nonzero"/></clipPath><clipPath id="7d007d7854"><path d="M 65.4375 52.394531 L 206.511719 105.535156 L 124.816406 322.410156 L -16.257812 269.269531 Z M 65.4375 52.394531 " clip-rule="nonzero"/></clipPath><clipPath id="e4a74d87a7"><path d="M 65.4375 52.394531 L 206.511719 105.535156 L 124.816406 322.410156 L -16.257812 269.269531 Z M 65.4375 52.394531 " clip-rule="nonzero"/></clipPath><clipPath id="49d2957f89"><path d="M 65.4375 52.394531 L 206.511719 105.535156 L 124.816406 322.410156 L -16.257812 269.269531 Z M 65.4375 52.394531 " clip-rule="nonzero"/></clipPath><clipPath id="1cb05fc3a1"><path d="M 20 86 L 156 86 L 156 223 L 20 223 Z M 20 86 " clip-rule="nonzero"/></clipPath><clipPath id="9efac7fe40"><path d="M 65.4375 52.394531 L 206.511719 105.535156 L 124.816406 322.410156 L -16.257812 269.269531 Z M 65.4375 52.394531 " clip-rule="nonzero"/></clipPath><clipPath id="a37a6ec650"><path d="M 65.4375 52.394531 L 206.511719 105.535156 L 124.816406 322.410156 L -16.257812 269.269531 Z M 65.4375 52.394531 " clip-rule="nonzero"/></clipPath><clipPath id="772cf7624d"><path d="M 65.4375 52.394531 L 206.511719 105.535156 L 124.816406 322.410156 L -16.257812 269.269531 Z M 65.4375 52.394531 " clip-rule="nonzero"/></clipPath><clipPath id="79dab893b4"><path d="M 32 152 L 169 152 L 169 288 L 32 288 Z M 32 152 " clip-rule="nonzero"/></clipPath><clipPath id="9ef56da630"><path d="M 65.4375 52.394531 L 206.511719 105.535156 L 124.816406 322.410156 L -16.257812 269.269531 Z M 65.4375 52.394531 " clip-rule="nonzero"/></clipPath><clipPath id="3f6ac5987e"><path d="M 65.4375 52.394531 L 206.511719 105.535156 L 124.816406 322.410156 L -16.257812 269.269531 Z M 65.4375 52.394531 " clip-rule="nonzero"/></clipPath><clipPath id="7f8fa6eec8"><path d="M 65.4375 52.394531 L 206.511719 105.535156 L 124.816406 322.410156 L -16.257812 269.269531 Z M 65.4375 52.394531 " clip-rule="nonzero"/></clipPath></defs><g clip-path="url(#94b6a611a7)"><g clip-path="url(#0776a23c1b)"><g clip-path="url(#2491b16a80)"><g clip-path="url(#37972b64c3)"><path fill="#ff914d" d="M 85.070312 189.238281 L 58.773438 209.324219 L 57.132812 208.703125 C 46.886719 201.097656 39.515625 190.824219 40.566406 178.097656 C 41.421875 155.925781 63.390625 147.332031 81.246094 144.683594 C 114.699219 140.417969 142.636719 120.949219 160.945312 92.230469 C 169.125 110.308594 164.984375 131.242188 150.597656 144.566406 C 80.605469 161.3125 46.9375 171.125 46.9375 171.125 C 72.566406 182.652344 85.070312 189.238281 85.070312 189.238281 Z M 85.070312 189.238281 " fill-opacity="1" fill-rule="evenodd"/></g></g></g></g><g clip-path="url(#b14d5c366f)"><g clip-path="url(#7d007d7854)"><g clip-path="url(#e4a74d87a7)"><g clip-path="url(#49d2957f89)"><path fill="#ffbd59" d="M 105.183594 185.566406 L 132.097656 163.839844 L 133.121094 166.101562 C 143.984375 172.066406 150.738281 183.980469 149.6875 196.707031 C 148.832031 218.878906 126.859375 227.472656 107.367188 229.5 C 75.554688 234.386719 45.976562 253.238281 29.925781 280.929688 C 21.128906 264.496094 25.269531 243.5625 39.65625 230.238281 C 108.007812 212.875 143.316406 203.679688 143.316406 203.679688 C 118.308594 190.511719 105.183594 185.566406 105.183594 185.566406 Z M 105.183594 185.566406 " fill-opacity="1" fill-rule="evenodd"/></g></g></g></g><g clip-path="url(#1cb05fc3a1)"><g clip-path="url(#9efac7fe40)"><g clip-path="url(#a37a6ec650)"><g clip-path="url(#772cf7624d)"><path fill="#000000" d="M 81.460938 139.144531 C 113.273438 134.257812 141.210938 114.789062 155.621094 86.476562 C 106.472656 152.3125 38.433594 104.191406 22.117188 167.398438 C 17.976562 188.332031 24.917969 209.691406 42.746094 222.03125 L 53.636719 213.011719 C 23.300781 194.085938 24.617188 145.847656 81.460938 139.144531 Z M 81.460938 139.144531 " fill-opacity="1" fill-rule="evenodd"/></g></g></g></g><g clip-path="url(#79dab893b4)"><g clip-path="url(#9ef56da630)"><g clip-path="url(#3f6ac5987e)"><g clip-path="url(#7f8fa6eec8)"><path fill="#000000" d="M 108.792969 235.660156 C 77.597656 238.90625 49.660156 258.375 32.992188 287.710938 C 83.78125 222.492188 152.4375 268.972656 166.496094 206.789062 C 172.277344 186.472656 163.695312 164.496094 147.507812 152.773438 L 137.234375 160.152344 C 165.3125 180.101562 165.636719 228.957031 108.792969 235.660156 Z M 108.792969 235.660156 " fill-opacity="1" fill-rule="evenodd"/></g></g></g></g><g fill="#000000" fill-opacity="1"><g transform="translate(178.100088, 230.041329)"><g><path d="M 27.75 -38.328125 L 27.0625 -35.109375 L 26.78125 -33.6875 L 25.421875 -34.03125 C 22.585938 -34.632812 20.210938 -34.9375 18.296875 -34.9375 C 14.859375 -34.9375 12.398438 -34.492188 10.921875 -33.609375 C 9.453125 -32.722656 8.71875 -31.410156 8.71875 -29.671875 C 8.71875 -28.421875 9.097656 -27.476562 9.859375 -26.84375 C 10.796875 -26.050781 12.003906 -25.390625 13.484375 -24.859375 C 14.273438 -24.597656 15.101562 -24.332031 15.96875 -24.0625 C 16.832031 -23.800781 17.71875 -23.554688 18.625 -23.328125 C 20.625 -22.835938 22.472656 -22.160156 24.171875 -21.296875 C 25.578125 -20.609375 26.757812 -19.773438 27.71875 -18.796875 C 28.675781 -17.816406 29.410156 -16.703125 29.921875 -15.453125 C 30.429688 -14.210938 30.6875 -12.851562 30.6875 -11.375 C 30.6875 -9.945312 30.5 -8.617188 30.125 -7.390625 C 29.75 -6.160156 29.191406 -5.035156 28.453125 -4.015625 C 27.710938 -2.992188 26.796875 -2.109375 25.703125 -1.359375 C 22.984375 0.523438 19.4375 1.46875 15.0625 1.46875 C 9.695312 1.46875 5.164062 0.242188 1.46875 -2.203125 L 0.453125 -2.890625 L 1.015625 -4.015625 L 2.484375 -6.90625 L 3.234375 -8.375 L 4.53125 -7.421875 C 5.4375 -6.816406 6.773438 -6.210938 8.546875 -5.609375 C 10.285156 -5.035156 11.96875 -4.75 13.59375 -4.75 C 16.800781 -4.75 19.3125 -5.257812 21.125 -6.28125 C 23.050781 -7.375 24.015625 -8.960938 24.015625 -11.046875 C 24.015625 -12.585938 23.613281 -13.753906 22.8125 -14.546875 C 21.875 -15.492188 20.671875 -16.25 19.203125 -16.8125 C 17.609375 -17.457031 15.90625 -18.003906 14.09375 -18.453125 C 12.132812 -18.953125 10.304688 -19.578125 8.609375 -20.328125 C 4.222656 -22.253906 2.03125 -25.160156 2.03125 -29.046875 C 2.03125 -32.785156 3.335938 -35.75 5.953125 -37.9375 C 8.472656 -40.09375 11.984375 -41.171875 16.484375 -41.171875 C 17.046875 -41.171875 17.597656 -41.160156 18.140625 -41.140625 C 18.691406 -41.117188 19.25 -41.085938 19.8125 -41.046875 C 20.382812 -41.015625 20.953125 -40.957031 21.515625 -40.875 C 22.078125 -40.800781 22.640625 -40.726562 23.203125 -40.65625 C 23.773438 -40.582031 24.351562 -40.488281 24.9375 -40.375 C 25.53125 -40.257812 26.109375 -40.128906 26.671875 -39.984375 L 28.09375 -39.6875 Z M 27.75 -38.328125 "/></g></g></g><g fill="#000000" fill-opacity="1"><g transform="translate(208.508173, 230.041329)"><g><path d="M 2.546875 -6.734375 C 2.171875 -7.753906 1.890625 -8.832031 1.703125 -9.96875 C 1.515625 -11.101562 1.421875 -12.3125 1.421875 -13.59375 C 1.421875 -18.613281 2.851562 -22.59375 5.71875 -25.53125 C 8.582031 -28.476562 12.1875 -29.953125 16.53125 -29.953125 C 19.851562 -29.953125 22.65625 -29.242188 24.9375 -27.828125 C 27.226562 -26.410156 28.898438 -24.328125 29.953125 -21.578125 C 30.742188 -19.609375 31.140625 -17.320312 31.140625 -14.71875 C 31.140625 -9.695312 29.707031 -5.71875 26.84375 -2.78125 C 23.9375 0.164062 20.332031 1.640625 16.03125 1.640625 C 12.707031 1.640625 9.894531 0.929688 7.59375 -0.484375 C 5.289062 -1.898438 3.609375 -3.984375 2.546875 -6.734375 Z M 10.25 -6.90625 C 11.757812 -5.28125 13.722656 -4.46875 16.140625 -4.46875 C 18.554688 -4.46875 20.578125 -5.335938 22.203125 -7.078125 C 23.816406 -8.816406 24.625 -11.234375 24.625 -14.328125 C 24.625 -17.421875 23.867188 -19.78125 22.359375 -21.40625 C 20.859375 -23.03125 18.890625 -23.84375 16.453125 -23.84375 C 14.015625 -23.84375 11.984375 -22.972656 10.359375 -21.234375 C 8.734375 -19.492188 7.921875 -17.078125 7.921875 -13.984375 C 7.921875 -10.890625 8.695312 -8.53125 10.25 -6.90625 Z M 10.25 -6.90625 "/></g></g></g><g fill="#000000" fill-opacity="1"><g transform="translate(239.93553, 230.041329)"><g><path d="M 2.546875 0 L 2.546875 -43.484375 L 3.84375 -43.59375 L 7.53125 -43.890625 L 9.0625 -44 L 9.0625 1.421875 L 2.546875 1.421875 Z M 2.546875 0 "/></g></g></g><g fill="#000000" fill-opacity="1"><g transform="translate(248.712484, 230.041329)"><g><path d="M 2.265625 -26.5 C 6.566406 -28.65625 10.378906 -29.785156 13.703125 -29.890625 C 16.378906 -29.890625 18.472656 -29.535156 19.984375 -28.828125 C 20.515625 -28.597656 21.003906 -28.332031 21.453125 -28.03125 C 21.910156 -27.726562 22.328125 -27.382812 22.703125 -27 C 23.078125 -26.625 23.4375 -26.210938 23.78125 -25.765625 C 24.800781 -24.398438 25.3125 -22.566406 25.3125 -20.265625 L 25.3125 1.421875 L 18.796875 1.421875 L 18.796875 -0.21875 C 14.535156 1.019531 11.6875 1.640625 10.25 1.640625 L 10.078125 1.640625 C 6.148438 1.640625 3.429688 0.375 1.921875 -2.15625 C 1.359375 -3.09375 1.039062 -4.035156 0.96875 -4.984375 C 0.882812 -5.734375 0.84375 -6.375 0.84375 -6.90625 C 0.84375 -8.644531 1.503906 -10.191406 2.828125 -11.546875 C 3.429688 -12.191406 4.109375 -12.722656 4.859375 -13.140625 C 5.617188 -13.554688 6.429688 -13.875 7.296875 -14.09375 C 8.503906 -14.394531 10.070312 -14.6875 12 -14.96875 C 13.925781 -15.257812 16.191406 -15.515625 18.796875 -15.734375 L 18.796875 -19.03125 C 18.796875 -20.726562 18.414062 -21.941406 17.65625 -22.671875 C 16.90625 -23.410156 15.609375 -23.78125 13.765625 -23.78125 C 10.960938 -23.78125 7.882812 -22.953125 4.53125 -21.296875 L 3.109375 -20.5625 L 2.609375 -22.03125 L 1.578125 -24.75 L 1.125 -25.9375 Z M 7.140625 -6.453125 C 7.140625 -5.546875 7.429688 -4.875 8.015625 -4.4375 C 8.597656 -4.007812 9.703125 -3.796875 11.328125 -3.796875 C 13.816406 -3.796875 16.304688 -4.285156 18.796875 -5.265625 L 18.796875 -10.765625 C 13.929688 -10.046875 10.910156 -9.492188 9.734375 -9.109375 C 8.753906 -8.804688 8.078125 -8.445312 7.703125 -8.03125 C 7.328125 -7.625 7.140625 -7.097656 7.140625 -6.453125 Z M 7.140625 -6.453125 "/></g></g></g><g fill="#000000" fill-opacity="1"><g transform="translate(273.741096, 230.041329)"><g><path d="M 17.5 -23.109375 C 17.082031 -23.328125 16.664062 -23.4375 16.25 -23.4375 C 15.945312 -23.4375 15.703125 -23.4375 15.515625 -23.4375 L 15.453125 -23.390625 L 15.125 -23.390625 C 14.851562 -23.390625 14.578125 -23.359375 14.296875 -23.296875 C 14.015625 -23.242188 13.734375 -23.171875 13.453125 -23.078125 C 13.171875 -22.984375 12.867188 -22.847656 12.546875 -22.671875 C 12.222656 -22.503906 11.910156 -22.304688 11.609375 -22.078125 C 11.453125 -21.960938 11.296875 -21.847656 11.140625 -21.734375 C 10.992188 -21.628906 10.847656 -21.519531 10.703125 -21.40625 C 9.867188 -20.726562 9.132812 -20.007812 8.5 -19.25 L 8.5 1.421875 L 1.984375 1.421875 L 1.984375 -29.609375 L 3.28125 -29.734375 L 6.96875 -30.015625 L 8.5 -30.125 L 8.5 -25.984375 C 8.945312 -26.441406 9.378906 -26.820312 9.796875 -27.125 C 11.796875 -28.632812 13.773438 -29.445312 15.734375 -29.5625 C 16.035156 -29.59375 16.488281 -29.609375 17.09375 -29.609375 C 17.8125 -29.609375 18.796875 -29.441406 20.046875 -29.109375 L 21.578125 -28.65625 L 20.953125 -27.1875 L 19.484375 -23.78125 L 18.859375 -22.359375 Z M 17.5 -23.109375 "/></g></g></g><g fill="#000000" fill-opacity="1"><g transform="translate(292.25771, 230.041329)"><g><path d="M 9.6875 -28.59375 L 9.6875 1.421875 L 3.171875 1.421875 L 3.171875 -29.609375 L 4.46875 -29.734375 L 8.15625 -30.015625 L 9.6875 -30.125 Z M 3.453125 -35.734375 C 2.847656 -36.484375 2.546875 -37.40625 2.546875 -38.5 C 2.546875 -39.632812 2.882812 -40.5625 3.5625 -41.28125 C 4.28125 -42.070312 5.226562 -42.46875 6.40625 -42.46875 C 6.925781 -42.46875 7.429688 -42.375 7.921875 -42.1875 C 8.410156 -42 8.847656 -41.71875 9.234375 -41.34375 C 9.609375 -40.957031 9.890625 -40.507812 10.078125 -40 C 10.265625 -39.488281 10.359375 -38.953125 10.359375 -38.390625 C 10.359375 -37.109375 9.925781 -36.128906 9.0625 -35.453125 C 8.300781 -34.804688 7.375 -34.484375 6.28125 -34.484375 C 5.070312 -34.484375 4.128906 -34.898438 3.453125 -35.734375 Z M 3.453125 -35.734375 "/></g></g></g><g fill="#000000" fill-opacity="1"><g transform="translate(303.469577, 230.041329)"><g><path d="M 4.015625 -35 C 4.015625 -37.9375 4.882812 -40.1875 6.625 -41.75 C 8.363281 -43.320312 10.800781 -44.109375 13.9375 -44.109375 C 15.519531 -44.109375 16.929688 -43.9375 18.171875 -43.59375 L 19.484375 -43.265625 L 19.25 -42.015625 L 18.6875 -38.84375 L 18.40625 -37.484375 L 17.046875 -37.65625 C 16.441406 -37.769531 15.882812 -37.84375 15.375 -37.875 C 14.863281 -37.914062 14.421875 -37.9375 14.046875 -37.9375 C 13.328125 -37.9375 12.703125 -37.820312 12.171875 -37.59375 C 11.078125 -37.070312 10.53125 -35.769531 10.53125 -33.6875 L 10.53125 -29.734375 L 17.546875 -29.734375 L 17.546875 -23.609375 L 10.53125 -23.609375 L 10.53125 1.421875 L 4.015625 1.421875 L 4.015625 -23.609375 L 0.625 -23.609375 L 0.84375 -25.25 L 1.359375 -28.53125 L 1.578125 -29.734375 L 4.015625 -29.734375 Z M 4.015625 -35 "/></g></g></g><g fill="#000000" fill-opacity="1"><g transform="translate(319.834419, 230.041329)"><g><path d="M 2.15625 -29.734375 L 6.28125 -30.015625 L 7.421875 -30.0625 L 7.75 -29.046875 L 15 -6.6875 L 24.40625 -28.875 L 24.75 -29.734375 L 31.828125 -29.734375 L 30.96875 -27.75 L 12.171875 14.71875 L 11.78125 15.578125 L 5.265625 15.578125 L 6.109375 13.59375 L 11.5 1.421875 L 11.328125 1.421875 L 10.984375 0.453125 L 0.90625 -27.859375 L 0.28125 -29.609375 Z M 2.15625 -29.734375 "/></g></g></g></svg>